<?xml version="1.0" standalone="no"?>
<!DOCTYPE svg PUBLIC "-//W3C//DTD SVG 20010904//EN"
 "http://www.w3.org/TR/2001/REC-SVG-20010904/DTD/svg10.dtd">
<svg version="1.0" xmlns="http://www.w3.org/2000/svg"
 width="1247.000000pt" height="1247.000000pt" viewBox="0 0 1247.000000 1247.000000"
 preserveAspectRatio="xMidYMid meet">
<metadata>
Created by potrace 1.11, written by Peter Selinger 2001-2013
</metadata>
<g transform="translate(0.000000,1247.000000) scale(0.100000,-0.100000)"
fill="#000000" stroke="none">
<path d="M5519 12241 c-85 -5 -104 -10 -173 -44 -48 -24 -103 -63 -144 -101
-37 -35 -80 -73 -95 -87 -15 -13 -62 -77 -105 -143 l-77 -121 -5 -106 c-7
-146 -24 -171 -160 -238 -115 -58 -197 -109 -225 -141 -11 -12 -50 -47 -87
-77 -37 -29 -92 -84 -122 -121 -29 -37 -64 -78 -76 -92 -50 -56 -95 -113 -149
-191 l-57 -81 -1839 0 c-1412 0 -1836 -2 -1824 -11 8 -7 69 -58 135 -113 245
-209 621 -527 669 -568 52 -45 266 -226 275 -234 3 -2 6 -443 7 -980 1 -538 4
-990 6 -1007 2 -16 7 -93 11 -170 4 -77 9 -151 11 -165 2 -14 7 -74 10 -135 3
-60 8 -132 11 -160 9 -108 14 -173 19 -240 3 -38 8 -88 10 -110 3 -22 14 -137
25 -255 11 -118 32 -309 46 -425 13 -115 27 -228 29 -250 8 -66 26 -198 30
-225 54 -306 76 -416 130 -630 35 -140 89 -345 120 -455 31 -110 65 -231 76
-270 19 -68 85 -231 101 -249 11 -13 10 -107 -1 -125 -9 -13 -30 -13 -246 4
-33 3 -89 7 -125 10 -113 9 -183 26 -260 65 -41 20 -112 50 -158 64 -67 23
-104 44 -200 115 -123 93 -171 147 -208 237 -12 29 -40 76 -62 105 -22 30 -60
95 -85 146 -68 137 -64 132 -107 121 -35 -9 -38 -13 -44 -55 -3 -25 -6 -106
-6 -179 0 -121 4 -151 39 -302 46 -196 70 -261 190 -499 70 -141 109 -205 188
-308 90 -117 140 -193 131 -199 -49 -31 -311 -37 -444 -10 -84 17 -325 129
-393 183 -53 42 -132 77 -163 73 -42 -5 -36 -42 26 -169 82 -168 183 -300 313
-410 271 -231 554 -376 918 -471 105 -28 231 -58 280 -67 50 -10 94 -21 98
-25 11 -10 13 -51 21 -355 4 -137 9 -284 11 -325 2 -41 7 -178 10 -305 3 -126
13 -277 21 -335 l15 -105 67 -63 c37 -34 110 -87 162 -116 85 -48 115 -59 280
-99 l185 -44 285 4 c476 6 946 76 1582 232 180 45 332 81 337 81 6 0 41 -19
78 -42 62 -38 167 -90 393 -195 47 -22 247 -116 445 -208 206 -97 370 -168
384 -167 14 1 72 24 130 51 58 27 135 63 171 79 149 68 462 213 552 255 147
69 755 431 918 547 80 56 195 142 255 190 164 130 195 146 195 99 0 -25 40
-104 101 -199 42 -67 57 -80 121 -117 129 -73 294 -103 558 -103 163 0 238 9
405 50 146 36 357 73 570 101 219 28 707 37 880 16 116 -14 126 -17 259 -82
205 -100 368 -217 441 -315 49 -67 128 -207 154 -275 13 -33 37 -85 53 -116
l30 -57 48 16 c44 14 49 19 58 56 16 67 -1 245 -44 476 -25 130 -66 264 -133
435 -70 177 -209 380 -320 469 -34 27 -61 50 -61 52 0 2 5 15 12 30 l12 26
216 -5 c236 -6 267 -12 440 -85 67 -28 102 -51 162 -107 70 -65 80 -71 112
-67 32 4 37 8 49 51 15 52 7 83 -43 156 -15 22 -52 83 -83 136 -31 53 -74 111
-94 129 -21 18 -77 69 -126 113 -48 44 -102 92 -120 108 -62 55 -333 209 -418
238 -46 16 -131 52 -189 79 -102 49 -111 51 -300 77 -209 30 -259 43 -261 72
-1 10 -2 29 -4 43 -1 14 -5 108 -9 210 -4 102 -9 203 -11 225 -2 22 -6 126
-10 230 -3 105 -8 210 -10 235 -2 25 -7 124 -10 220 l-7 175 -45 82 c-68 121
-105 152 -271 228 -78 36 -147 65 -152 65 -5 0 -17 14 -25 31 -16 30 -15 35
24 142 30 83 54 181 91 377 80 428 147 835 184 1130 33 262 40 330 51 515 3
44 7 107 10 140 3 33 10 123 15 200 6 77 12 167 15 200 38 462 45 747 32 1380
-4 193 -10 503 -13 690 l-6 340 534 457 c293 251 543 465 556 476 l23 20
-1850 -1 c-1018 -1 -1851 1 -1851 5 0 3 -8 4 -17 2 -15 -4 -23 12 -47 93 -18
61 -45 122 -71 164 -79 122 -76 112 -48 214 19 69 25 117 26 205 l2 115 -66
131 c-54 108 -83 152 -168 252 -57 67 -107 122 -111 122 -4 0 -40 24 -81 53
-94 68 -167 88 -289 80 -131 -8 -247 -58 -393 -167 -117 -88 -137 -97 -232
-108 -44 -5 -94 -13 -110 -19 -22 -8 -46 -8 -88 1 -49 10 -62 17 -94 58 -107
131 -251 246 -400 319 -63 30 -125 35 -324 24z"/>
</g>
</svg>
